<?xml version="1.0" encoding="UTF-8" standalone="no"?>
<svg
   xml:space="preserve"
   width="655.359"
   height="655.359"
   style="shape-rendering:geometricPrecision;text-rendering:geometricPrecision;image-rendering:optimizeQuality;fill-rule:evenodd;clip-rule:evenodd"
   viewBox="0 0 6.827 6.827"
   version="1.1"
   id="svg5"
   sodipodi:docname="icon (2).svg"
   inkscape:version="1.4 (86a8ad7, 2024-10-11)"
   xmlns:inkscape="http://www.inkscape.org/namespaces/inkscape"
   xmlns:sodipodi="http://sodipodi.sourceforge.net/DTD/sodipodi-0.dtd"
   xmlns="http://www.w3.org/2000/svg"
   xmlns:svg="http://www.w3.org/2000/svg"><sodipodi:namedview
   id="namedview5"
   pagecolor="#ffffff"
   bordercolor="#000000"
   borderopacity="0.25"
   inkscape:showpageshadow="2"
   inkscape:pageopacity="0.0"
   inkscape:pagecheckerboard="0"
   inkscape:deskcolor="#d1d1d1"
   inkscape:zoom="1.3504049"
   inkscape:cx="346.56273"
   inkscape:cy="342.48988"
   inkscape:window-width="1920"
   inkscape:window-height="1129"
   inkscape:window-x="-8"
   inkscape:window-y="-8"
   inkscape:window-maximized="1"
   inkscape:current-layer="svg5" />
    <defs
   id="defs1"><rect
   x="78.494977"
   y="499.85009"
   width="307.31522"
   height="88.121723"
   id="rect7" />
        <style
   id="style1">.fil2{fill:none}</style>
        <filter
   id="shadow"
   x="0"
   y="0"
   width="1"
   height="1">
            <feDropShadow
   dx="0.05"
   dy="0.05"
   stdDeviation="0.02"
   flood-opacity="0.3" />
        </filter>
    <rect
   x="78.49498"
   y="499.8501"
   width="307.31522"
   height="88.121719"
   id="rect7-9" /></defs>
    <g
   id="Layer_x0020_1">
        <path
   style="fill:#00897b;fill-rule:nonzero"
   d="M3.413 3.764H5.07l.024.084.581 1.976.044.15H3.414z"
   id="path1" />
        <path
   style="fill:#26a69a;fill-rule:nonzero"
   d="M1.844 3.764h1.569v2.21H1.107l.626-2.126.024-.084z"
   id="path2" />
        <g
   id="_490154376">
            <path
   id="_490154424"
   class="fil2"
   d="M0 0h6.827v6.827H0z" />
            <path
   id="_490154760"
   class="fil2"
   d="M.853.853h5.12v5.12H.853z" />
        </g>
        <path
   d="M4.808 2.357c0 .612-.587 1.418-1.027 2.021-.102.14-.196.27-.272.381l-.096.142-.096-.142c-.075-.112-.168-.24-.27-.381-.438-.607-1.029-1.424-1.029-2.03 0-.411.156-.781.405-1.05.254-.273.606-.44.99-.44.385 0 .736.169.99.443.25.27.405.643.405 1.056z"
   style="fill:#ffcc80"
   id="path3" />
        <path
   d="M3.413 2.872a.666.666 0 0 1-.665-.658.666.666 0 0 1 1.33 0 .666.666 0 0 1-.665.658z"
   style="fill:#ffa726"
   id="path4" />
    </g>
    
    <!-- Testo con ombra -->
    <text
   x="50%"
   y="85%"
   text-anchor="middle"
   font-family="Helvetica, Arial, sans-serif"
   font-size="0.8px"
   style="filter:url(#shadow)"
   id="text5" />
<text
   xml:space="preserve"
   transform="matrix(0.01041719,0,0,0.01041719,0.64798644,0.2237096)"
   id="text7"
   style="font-size:77.3333px;font-family:'Lucida Sans Unicode';-inkscape-font-specification:'Lucida Sans Unicode';text-align:start;writing-mode:lr-tb;direction:ltr;white-space:pre;shape-inside:url(#rect7);opacity:1;fill:#000000;fill-opacity:0.40806;stroke:#000000;stroke-width:0;stroke-linecap:round;stroke-linejoin:round;stroke-dasharray:none;stroke-dashoffset:0;paint-order:stroke markers fill"><tspan
     x="78.494141"
     y="570.83244"
     id="tspan2">Dawar</tspan></text><text
   xml:space="preserve"
   style="font-size:0.805596px;font-family:'Lucida Sans Unicode';-inkscape-font-specification:'Lucida Sans Unicode';text-align:start;writing-mode:lr-tb;direction:ltr;text-anchor:start;opacity:1;fill:#000000;fill-opacity:0.41;stroke:none;stroke-width:0.0131896;stroke-linecap:round;stroke-linejoin:round;paint-order:stroke markers fill"
   x="3.9110613"
   y="6.1558704"
   id="text8"><tspan
     sodipodi:role="line"
     id="tspan8"
     style="fill:#000000;stroke-width:0.0131896;fill-opacity:0.41;stroke:none"
     x="3.9110613"
     y="6.1558704">izer</tspan></text><text
   xml:space="preserve"
   transform="matrix(0.01041719,0,0,0.01041719,0.60715632,0.26217046)"
   id="text7-4"
   style="font-size:77.3333px;font-family:'Lucida Sans Unicode';-inkscape-font-specification:'Lucida Sans Unicode';text-align:start;writing-mode:lr-tb;direction:ltr;white-space:pre;shape-inside:url(#rect7-9);clip-rule:evenodd;fill:#1a1a1a;fill-opacity:1;fill-rule:evenodd;stroke:#000000;stroke-width:1.26614;stroke-linecap:round;stroke-linejoin:round;paint-order:stroke markers fill;image-rendering:optimizeQuality;shape-rendering:geometricPrecision;text-rendering:geometricPrecision"><tspan
     x="78.494141"
     y="570.83244"
     id="tspan3">Dawar</tspan></text><text
   xml:space="preserve"
   style="font-size:0.805596px;font-family:'Lucida Sans Unicode';-inkscape-font-specification:'Lucida Sans Unicode';text-align:start;writing-mode:lr-tb;direction:ltr;text-anchor:start;clip-rule:evenodd;fill:#ff0000;fill-opacity:1;fill-rule:evenodd;stroke:#000000;stroke-width:0;stroke-linecap:round;stroke-linejoin:round;stroke-dasharray:none;paint-order:stroke markers fill;image-rendering:optimizeQuality;shape-rendering:geometricPrecision;text-rendering:geometricPrecision"
   x="3.8856592"
   y="6.2174735"
   id="text8-8"><tspan
     sodipodi:role="line"
     id="tspan8-8"
     style="fill:#ff0000;stroke-width:0;stroke-dasharray:none"
     x="3.8856592"
     y="6.2174735">izer</tspan></text></svg>
